<svg width="142" height="25" viewBox="0 0 142 25" fill="none" xmlns="http://www.w3.org/2000/svg">
<path d="M32.3434 12.3765C32.3434 11.1574 32.6387 10.0266 33.2292 8.98415C33.8377 7.92405 34.6608 7.0848 35.6987 6.4664C36.7545 5.83034 37.9088 5.51231 39.1614 5.51231C40.3067 5.51231 41.4072 5.77734 42.463 6.30739C43.5188 6.81977 44.3867 7.57068 45.0667 8.56011C45.7646 9.54954 46.1315 10.7157 46.1673 12.0585C46.1852 12.6238 46.1494 13.1716 46.0599 13.7016H36.1014C36.2624 14.3553 36.6114 14.8766 37.1482 15.2653C37.703 15.6363 38.374 15.8218 39.1614 15.8218C39.7161 15.8218 40.1635 15.7511 40.5035 15.6098C40.8614 15.4685 41.1835 15.2829 41.4698 15.0532L45.6304 15.0797C45.0757 16.2989 44.2257 17.2883 43.0804 18.048C41.9351 18.8078 40.6646 19.1876 39.2688 19.1876C37.9982 19.1876 36.8351 18.8873 35.7793 18.2866C34.7235 17.6682 33.8824 16.8377 33.2561 15.7953C32.6477 14.7529 32.3434 13.6133 32.3434 12.3765ZM42.4362 10.9453C42.1678 10.3269 41.7383 9.83223 41.1477 9.4612C40.5751 9.07249 39.9488 8.87814 39.2688 8.87814C38.5172 8.87814 37.873 9.06366 37.3361 9.43469C36.7993 9.80573 36.3877 10.3093 36.1014 10.9453H42.4362Z" fill="#F4B000"/>
<path d="M47.6551 12.35C47.6551 11.1132 47.9593 9.97358 48.5678 8.93114C49.1941 7.87104 50.0352 7.04063 51.091 6.4399C52.1467 5.82151 53.301 5.51231 54.5536 5.51231C55.8063 5.51231 56.9605 5.82151 58.0163 6.4399C59.0721 7.04063 59.9131 7.87104 60.5395 8.93114C61.1658 9.97358 61.4789 11.1132 61.4789 12.35C61.4789 13.5868 61.1658 14.7352 60.5395 15.7953C59.9131 16.8377 59.0721 17.6682 58.0163 18.2866C56.9605 18.8873 55.8063 19.1876 54.5536 19.1876C53.2473 19.1876 52.1199 18.8519 51.1715 18.1805V24.2761H47.6551V12.35ZM54.5805 15.8218C55.5647 15.8218 56.3789 15.495 57.0231 14.8412C57.6673 14.1698 57.9894 13.3394 57.9894 12.35C57.9894 11.3605 57.6673 10.539 57.0231 9.88524C56.3789 9.21384 55.5647 8.87814 54.5805 8.87814C53.5962 8.87814 52.7731 9.21384 52.111 9.88524C51.4488 10.539 51.1178 11.3605 51.1178 12.35C51.1178 13.3394 51.4488 14.1698 52.111 14.8412C52.7731 15.495 53.5962 15.8218 54.5805 15.8218Z" fill="#F4B000"/>
<path d="M65.0574 4.31969C64.4668 4.31969 63.9658 4.12534 63.5542 3.73664C63.1605 3.33026 62.9637 2.83555 62.9637 2.25249C62.9637 1.6871 63.1605 1.21006 63.5542 0.82135C63.9658 0.414978 64.4668 0.211792 65.0574 0.211792C65.63 0.211792 66.1132 0.414978 66.5069 0.82135C66.9184 1.21006 67.1242 1.6871 67.1242 2.25249C67.1242 2.83555 66.9184 3.33026 66.5069 3.73664C66.1132 4.12534 65.63 4.31969 65.0574 4.31969ZM63.3126 5.72433H66.8021V18.9756H63.3126V5.72433Z" fill="#F4B000"/>
<path d="M75.5217 19.1876C74.2691 19.1876 73.1059 18.8873 72.0322 18.2866C70.9764 17.6682 70.1353 16.8377 69.509 15.7953C68.9006 14.7352 68.5964 13.5868 68.5964 12.35C68.5964 11.1132 68.9006 9.97358 69.509 8.93114C70.1353 7.87104 70.9764 7.04063 72.0322 6.4399C73.1059 5.82151 74.2691 5.51231 75.5217 5.51231C77.0964 5.51231 78.4922 5.98052 79.7091 6.91695C80.9439 7.8357 81.767 9.01949 82.1786 10.4683H78.4744C78.1701 9.97358 77.7586 9.58487 77.2396 9.30218C76.7385 9.01949 76.1749 8.87814 75.5485 8.87814C74.5643 8.87814 73.7412 9.21384 73.079 9.88524C72.4169 10.539 72.0859 11.3605 72.0859 12.35C72.0859 13.3394 72.4169 14.1698 73.079 14.8412C73.7412 15.495 74.5643 15.8218 75.5485 15.8218C76.1391 15.8218 76.6759 15.6981 77.1591 15.4508C77.6422 15.1858 78.0449 14.8236 78.367 14.3642H82.1518C81.7223 15.7776 80.8991 16.9349 79.6823 17.836C78.4654 18.7371 77.0786 19.1876 75.5217 19.1876Z" fill="#F4B000"/>
<path d="M83.5117 12.3765C83.5117 11.1574 83.807 10.0266 84.3975 8.98415C85.0059 7.92405 85.8291 7.0848 86.867 6.4664C87.9228 5.83034 89.077 5.51231 90.3297 5.51231C91.4749 5.51231 92.5755 5.77734 93.6313 6.30739C94.6871 6.81977 95.555 7.57068 96.235 8.56011C96.9329 9.54954 97.2997 10.7157 97.3355 12.0585C97.3534 12.6238 97.3176 13.1716 97.2282 13.7016H87.2696C87.4307 14.3553 87.7796 14.8766 88.3165 15.2653C88.8712 15.6363 89.5423 15.8218 90.3297 15.8218C90.8844 15.8218 91.3318 15.7511 91.6718 15.6098C92.0297 15.4685 92.3518 15.2829 92.6381 15.0532L96.7987 15.0797C96.2439 16.2989 95.3939 17.2883 94.2486 18.048C93.1034 18.8078 91.8328 19.1876 90.437 19.1876C89.1665 19.1876 88.0033 18.8873 86.9475 18.2866C85.8917 17.6682 85.0507 16.8377 84.4243 15.7953C83.8159 14.7529 83.5117 13.6133 83.5117 12.3765ZM93.6044 10.9453C93.336 10.3269 92.9065 9.83223 92.316 9.4612C91.7434 9.07249 91.117 8.87814 90.437 8.87814C89.6854 8.87814 89.0412 9.06366 88.5044 9.43469C87.9675 9.80573 87.556 10.3093 87.2696 10.9453H93.6044Z" fill="#F4B000"/>
<path d="M110.634 12.0054C110.634 9.8499 110.097 8.23324 109.023 7.15547C107.95 6.06003 106.518 5.51231 104.729 5.51231C102.939 5.51231 101.508 6.06003 100.434 7.15547C99.3602 8.23324 98.8234 9.8499 98.8234 12.0054V18.9756H102.313V12.0054C102.313 10.9277 102.501 10.1414 102.877 9.64671C103.27 9.13433 103.888 8.87814 104.729 8.87814C105.57 8.87814 106.178 9.13433 106.554 9.64671C106.948 10.1414 107.145 10.9277 107.145 12.0054V18.9756H110.634V12.0054Z" fill="#F4B000"/>
<path d="M116.82 9.09016V12.721C116.82 13.7811 117.008 14.5409 117.384 15.0002C117.76 15.4596 118.377 15.6893 119.236 15.6893V19.0551C117.429 19.0551 115.988 18.5339 114.915 17.4915C113.859 16.449 113.331 14.8589 113.331 12.721V9.09016H111.345V5.72433H113.331V0.450314H116.82V5.72433H119.236V9.09016H116.82Z" fill="#F4B000"/>
<path d="M120.184 12.3765C120.184 11.1574 120.479 10.0266 121.07 8.98415C121.678 7.92405 122.501 7.0848 123.539 6.4664C124.595 5.83034 125.749 5.51231 127.002 5.51231C128.147 5.51231 129.248 5.77734 130.304 6.30739C131.359 6.81977 132.227 7.57068 132.907 8.56011C133.605 9.54954 133.972 10.7157 134.008 12.0585C134.026 12.6238 133.99 13.1716 133.9 13.7016H123.942C124.103 14.3553 124.452 14.8766 124.989 15.2653C125.544 15.6363 126.215 15.8218 127.002 15.8218C127.557 15.8218 128.004 15.7511 128.344 15.6098C128.702 15.4685 129.024 15.2829 129.31 15.0532L133.471 15.0797C132.916 16.2989 132.066 17.2883 130.921 18.048C129.776 18.8078 128.505 19.1876 127.109 19.1876C125.839 19.1876 124.676 18.8873 123.62 18.2866C122.564 17.6682 121.723 16.8377 121.097 15.7953C120.488 14.7529 120.184 13.6133 120.184 12.3765ZM130.277 10.9453C130.008 10.3269 129.579 9.83223 128.988 9.4612C128.416 9.07249 127.789 8.87814 127.109 8.87814C126.358 8.87814 125.714 9.06366 125.177 9.43469C124.64 9.80573 124.228 10.3093 123.942 10.9453H130.277Z" fill="#F4B000"/>
<path d="M135.496 12.0054C135.496 9.9029 136.024 8.32158 137.079 7.26148C138.135 6.20138 139.522 5.67132 141.24 5.67132H141.401V9.03715H141.267C140.497 9.03715 139.925 9.27568 139.549 9.75272C139.173 10.2298 138.985 10.9807 138.985 12.0054V18.9756H135.496V12.0054Z" fill="#F4B000"/>
<circle cx="12.8871" cy="12.5" r="12.2882" fill="#F4B000" fill-opacity="0.19"/>
<circle cx="12.8871" cy="12.4999" r="8.77727" fill="#F4B000" fill-opacity="0.19"/>
<circle cx="12.8871" cy="12.4999" r="3.862" fill="#F4B000"/>
</svg>
