<svg width="43" height="42" viewBox="0 0 43 42" fill="none" xmlns="http://www.w3.org/2000/svg">
<path d="M24.125 7.10489C24.125 4.76689 21.297 3.59614 19.645 5.24989L11.77 13.1249H8.38901C6.39226 13.1249 4.33251 14.2869 3.73401 16.4586C3.32797 17.9382 3.12313 19.4657 3.12501 20.9999C3.12501 22.5714 3.33676 24.0939 3.73751 25.5411C4.33426 27.7111 6.39401 28.8749 8.39076 28.8749H11.7683L19.6433 36.7499C21.297 38.4036 24.125 37.2329 24.125 34.8949V7.10489ZM33.022 8.93539C33.2681 8.6896 33.6017 8.55154 33.9495 8.55154C34.2973 8.55154 34.6309 8.6896 34.877 8.93539C41.541 15.5976 41.541 26.4004 34.877 33.0644C34.7569 33.1933 34.612 33.2968 34.451 33.3685C34.29 33.4402 34.1162 33.4788 33.9399 33.4819C33.7637 33.485 33.5886 33.4526 33.4252 33.3866C33.2618 33.3206 33.1133 33.2223 32.9887 33.0977C32.8641 32.9731 32.7658 32.8246 32.6998 32.6612C32.6338 32.4978 32.6014 32.3227 32.6045 32.1465C32.6076 31.9702 32.6462 31.7964 32.7179 31.6354C32.7896 31.4744 32.8931 31.3295 33.022 31.2094C34.3629 29.8687 35.4265 28.2771 36.1521 26.5253C36.8778 24.7735 37.2513 22.896 37.2513 20.9999C37.2513 19.1038 36.8778 17.2262 36.1521 15.4745C35.4265 13.7227 34.3629 12.1311 33.022 10.7904C32.7762 10.5443 32.6382 10.2107 32.6382 9.86289C32.6382 9.51507 32.7762 9.18148 33.022 8.93539Z" fill="#F4B000"/>
<path d="M28.381 13.5747C28.5029 13.4527 28.6476 13.3559 28.8069 13.2899C28.9662 13.2239 29.1369 13.1899 29.3094 13.1899C29.4818 13.1899 29.6525 13.2239 29.8118 13.2899C29.9711 13.3559 30.1159 13.4527 30.2377 13.5747C31.2129 14.5497 31.9865 15.7073 32.5143 16.9813C33.0421 18.2554 33.3138 19.6209 33.3138 20.9999C33.3138 22.3789 33.0421 23.7445 32.5143 25.0185C31.9865 26.2925 31.2129 27.4501 30.2377 28.4252C29.9901 28.6641 29.6585 28.7963 29.3144 28.7931C28.9702 28.79 28.6411 28.6518 28.3979 28.4083C28.1546 28.1648 28.0167 27.8356 28.0139 27.4915C28.0111 27.1473 28.1435 26.8158 28.3827 26.5684C29.114 25.8371 29.6941 24.969 30.0899 24.0136C30.4856 23.0581 30.6893 22.0341 30.6893 20.9999C30.6893 19.9657 30.4856 18.9417 30.0899 17.9863C29.6941 17.0308 29.114 16.1627 28.3827 15.4314C28.137 15.1853 27.9989 14.8517 27.9989 14.5039C27.9989 14.1561 28.137 13.8225 28.3827 13.5764L28.381 13.5747Z" fill="#F4B000"/>
</svg>
